<?xml version="1.0" encoding="UTF-8" standalone="no"?>
<!-- Created with Inkscape (http://www.inkscape.org/) -->

<svg
   xmlns:dc="http://purl.org/dc/elements/1.1/"
   xmlns:cc="http://creativecommons.org/ns#"
   xmlns:rdf="http://www.w3.org/1999/02/22-rdf-syntax-ns#"
   xmlns:svg="http://www.w3.org/2000/svg"
   xmlns="http://www.w3.org/2000/svg"
   xmlns:sodipodi="http://sodipodi.sourceforge.net/DTD/sodipodi-0.dtd"
   xmlns:inkscape="http://www.inkscape.org/namespaces/inkscape"
   width="200"
   height="200"
   viewBox="0 0 52.916665 52.916668"
   version="1.1"
   id="svg8"
   inkscape:version="0.92.5 (2060ec1f9f, 2020-04-08)"
   sodipodi:docname="bicycling.svg"
   inkscape:export-filename="/home/chris/trailingblog/trailingblog/static/images/bicycling.png"
   inkscape:export-xdpi="38.400002"
   inkscape:export-ydpi="38.400002">
  <defs
     id="defs2" />
  <sodipodi:namedview
     id="base"
     pagecolor="#ffffff"
     bordercolor="#666666"
     borderopacity="1.0"
     inkscape:pageopacity="0.0"
     inkscape:pageshadow="2"
     inkscape:zoom="1.4283557"
     inkscape:cx="55.777873"
     inkscape:cy="164.8237"
     inkscape:document-units="mm"
     inkscape:current-layer="g888"
     showgrid="false"
     units="px"
     inkscape:window-width="1920"
     inkscape:window-height="1015"
     inkscape:window-x="0"
     inkscape:window-y="0"
     inkscape:window-maximized="1"
     inkscape:snap-global="false" />
  <metadata
     id="metadata5">
    <rdf:RDF>
      <cc:Work
         rdf:about="">
        <dc:format>image/svg+xml</dc:format>
        <dc:type
           rdf:resource="http://purl.org/dc/dcmitype/StillImage" />
        <dc:title></dc:title>
      </cc:Work>
    </rdf:RDF>
  </metadata>
  <g
     inkscape:label="Ebene 1"
     inkscape:groupmode="layer"
     id="layer1"
     transform="translate(0,-244.08332)">
    <g
       id="g888">
      <path
         style="opacity:0.853;fill:none;fill-opacity:1;stroke:#933122;stroke-width:7;stroke-linecap:square;stroke-linejoin:bevel;stroke-miterlimit:4;stroke-dasharray:none;stroke-opacity:1"
         id="path887"
         d="m 11.174424,293.94793 c 0.381423,-0.1282 0.746311,-0.29999 1.114347,-0.46176 0.542777,-0.28123 1.091842,-0.55074 1.638826,-0.82406 0.511198,-0.22278 1.968771,-1.07996 -0.143031,0.13164 0.713817,-0.48484 2.646789,-1.46972 0.494293,-0.29593 -0.07299,0.0398 0.139985,-0.0897 0.209072,-0.13599 0.157428,-0.10538 0.283797,-0.19674 0.438782,-0.30675 0.393556,-0.3034 0.786799,-0.6082 1.174701,-0.91907 0.374513,-0.32232 0.729671,-0.6664 1.088556,-1.00586 0.505328,-0.46827 0.99135,-0.95555 1.478216,-1.44288 0.636264,-0.66475 1.261984,-1.34044 1.880982,-2.02142 0.632366,-0.72948 1.269285,-1.45468 1.872976,-2.20818 0.724249,-0.91324 1.459273,-1.81785 2.189377,-2.72648 0.692264,-0.86488 1.379234,-1.73408 2.06521,-2.60399 0.657809,-0.85184 1.357624,-1.67063 2.080262,-2.46789 0.954662,-1.03724 1.969342,-2.01624 2.990792,-2.98688 0.983059,-0.91983 1.998123,-1.80494 3.015337,-2.68667 0.841444,-0.67444 1.724369,-1.29531 2.58544,-1.94461 0.676799,-0.48067 1.345446,-0.98172 2.065046,-1.39847 0.547905,-0.3173 1.102352,-0.62317 1.653527,-0.93476 1.257882,-0.66795 2.544133,-1.27986 3.814426,-1.92333 1.015098,-0.51525 2.031752,-1.02519 3.07112,-1.48988 0.799938,-0.33041 1.604039,-0.65078 2.406673,-0.97475 0.312404,-0.10577 0.613871,-0.24845 0.92787,-0.34963 0.134274,-0.0433 0.271889,-0.0754 0.407064,-0.1158 0.249637,-0.055 0.498068,-0.1131 0.746419,-0.17361 0,0 -1.078574,0.82291 -1.078574,0.82291 v 0 c -0.245181,0.0573 -0.492294,0.10663 -0.734946,0.1741 -0.442005,0.1307 -0.873369,0.29308 -1.304057,0.45692 -0.798328,0.31678 -1.598671,0.62948 -2.388484,0.9669 -1.022226,0.45547 -2.02157,0.95732 -3.022018,1.45847 -1.277919,0.64218 -2.565651,1.26545 -3.827645,1.93886 0.173839,-0.10647 0.338206,-0.23023 0.521512,-0.31942 0.163137,-0.0794 -0.307723,0.19226 -0.460676,0.28982 -0.544465,0.34729 -1.076259,0.71342 -1.597748,1.09433 -0.864359,0.65074 -1.748438,1.27507 -2.600692,1.94153 -1.032677,0.88846 -2.068727,1.77387 -3.066862,2.70131 -1.009476,0.95851 -1.999933,1.93632 -2.945649,2.95833 -0.72331,0.79005 -1.416225,1.60712 -2.071616,2.45466 -0.693121,0.87006 -1.38897,1.73786 -2.078378,2.61088 -0.729087,0.89857 -1.463639,1.7937 -2.163601,2.71511 -0.609862,0.75745 -1.253513,1.48561 -1.887804,2.22272 -0.611996,0.67961 -1.22847,1.356 -1.858259,2.01894 -0.26986,0.26971 -0.528402,0.55086 -0.800196,0.8185 -0.377481,0.37171 -0.06425,0.0477 -0.443433,0.40819 -0.07138,0.0679 -0.138933,0.13965 -0.208399,0.20947 -0.35868,0.33832 -0.708403,0.68633 -1.079028,1.01185 -0.190091,0.16056 -0.39113,0.30145 -0.586166,0.45549 -0.12856,0.10153 -0.24808,0.21417 -0.376646,0.3157 -0.06945,0.0548 -0.142159,0.10543 -0.213239,0.15815 -0.208943,0.15063 -0.415208,0.31311 -0.636516,0.44562 -1.448345,0.86722 -1.962566,1.14129 -0.341157,0.20874 0.04756,-0.0274 -0.09339,0.0576 -0.140093,0.0864 -0.712342,0.41277 -1.412957,0.84936 -2.164282,1.18921 -0.551185,0.27053 -1.09771,0.55023 -1.647691,0.82321 -0.378077,0.16571 -0.755468,0.33278 -1.140747,0.48114 0,0 1.076807,-0.85102 1.076807,-0.85102 z"
         inkscape:connector-curvature="0" />
      <path
         style="opacity:0.853;fill:none;fill-opacity:1;stroke:#933122;stroke-width:7;stroke-linecap:square;stroke-linejoin:bevel;stroke-miterlimit:4;stroke-dasharray:none;stroke-opacity:1"
         id="path889"
         d="m 1.281613,269.73696 c 0.5243931,-0.0403 1.0476717,-0.10995 1.5653769,-0.20331 0.7640905,-0.12404 1.5095249,-0.32783 2.2607222,-0.50946 0.5753701,-0.16761 1.1628787,-0.28975 1.740163,-0.44983 0.3601551,-0.0999 0.7168801,-0.21172 1.0754926,-0.31699 0.5081558,-0.18034 1.0379821,-0.30225 1.5446108,-0.48675 0.4692311,-0.17087 0.9232615,-0.39698 1.3800675,-0.59802 1.037762,-0.43208 2.053263,-0.91057 3.052322,-1.42522 1.357843,-0.67317 2.673128,-1.42613 4.018759,-2.12309 1.729508,-0.89555 3.453238,-1.80215 5.183095,-2.69701 1.630285,-0.87307 3.270569,-1.72592 4.915483,-2.57093 1.725258,-0.88097 3.4988,-1.66082 5.303684,-2.36266 1.017085,-0.3439 2.018353,-0.73668 3.038515,-1.07153 0.414872,-0.13618 0.835467,-0.25428 1.252323,-0.38426 0.860703,-0.2826 1.755447,-0.42023 2.645759,-0.56876 0.789255,-0.11119 1.587548,-0.13458 2.382293,-0.18477 1.350761,-0.0771 2.702083,-0.14119 4.054181,-0.18916 1.016397,-0.017 2.031471,-0.0447 3.04682,-0.0936 0.911653,-0.0355 1.824725,-0.0426 2.736874,-0.0253 0.495572,0.011 0.991052,0.0257 1.48655,0.0395 0,0 -1.084611,0.78104 -1.084611,0.78104 v 0 c -0.480894,-0.0275 -0.961898,-0.0544 -1.44349,-0.0663 -0.917872,-0.0122 -1.835709,0.01 -2.752889,0.0463 -1.002684,0.0364 -2.005666,0.0454 -3.008786,0.064 -1.356564,0.0367 -2.711823,0.10175 -4.06518,0.20348 -0.80336,0.0632 -1.609897,0.10364 -2.40796,0.21832 -0.872725,0.13597 -1.746724,0.27704 -2.590041,0.54893 -1.425212,0.43475 -2.835719,0.91377 -4.235783,1.4242 -1.8035,0.70384 -3.574613,1.48761 -5.296942,2.3731 -1.645888,0.84466 -3.283813,1.70355 -4.91702,2.57252 -1.726774,0.89037 -3.446076,1.79511 -5.17144,2.68821 -1.363811,0.71457 -2.694801,1.4898 -4.077035,2.16906 -1.008156,0.51846 -2.035279,0.99443 -3.0793136,1.43663 -0.4578559,0.20037 -0.9132758,0.41771 -1.3851983,0.58375 -0.5050448,0.17768 -1.0287261,0.30328 -1.5351542,0.477 -0.9432348,0.27977 -1.8905911,0.54149 -2.8447569,0.7817 -0.7553005,0.1888 -1.5091077,0.38075 -2.2775981,0.51093 -0.5373137,0.0903 -1.07812947,0.17245 -1.62136257,0.21583 0,0 1.11146967,-0.80753 1.11146967,-0.80753 z"
         inkscape:connector-curvature="0" />
      <ellipse
         style="opacity:0.853;fill:none;fill-opacity:1;stroke:#933122;stroke-width:7;stroke-linecap:square;stroke-linejoin:bevel;stroke-miterlimit:4;stroke-dasharray:none;stroke-opacity:1"
         id="path893"
         cx="10.975252"
         cy="258.19299"
         rx="2.2691448"
         ry="1.6671268" />
      <ellipse
         ry="1.6671268"
         rx="2.2691448"
         cy="252.54327"
         cx="22.459902"
         id="ellipse895"
         style="opacity:0.853;fill:none;fill-opacity:1;stroke:#933122;stroke-width:7;stroke-linecap:square;stroke-linejoin:bevel;stroke-miterlimit:4;stroke-dasharray:none;stroke-opacity:1" />
      <circle
         style="opacity:0.853;fill:#933122;fill-opacity:1;stroke:none;stroke-width:7;stroke-linecap:square;stroke-linejoin:bevel;stroke-miterlimit:4;stroke-dasharray:none;stroke-opacity:1"
         id="path901"
         cx="14.957831"
         cy="245.92107"
         r="3.1953263" />
      <g
         id="g920"
         transform="matrix(-0.36481694,0.41919933,-0.41919933,-0.36481694,181.21851,352.75286)">
        <circle
           style="opacity:0.853;fill:#933122;fill-opacity:1;stroke:none;stroke-width:7;stroke-linecap:square;stroke-linejoin:bevel;stroke-miterlimit:4;stroke-dasharray:none;stroke-opacity:1"
           id="circle907"
           cx="77.567696"
           cy="269.26083"
           r="3.1953263" />
        <path
           inkscape:connector-curvature="0"
           d="m 80.924965,279.05885 c 0.22465,0.59345 0.46309,1.18212 0.713298,1.76561 0.581949,1.41905 1.422435,2.70073 2.283844,3.96161 0.966557,1.41621 2.048777,2.74531 3.129317,4.07443 0.224901,0.28065 0.449286,0.56144 0.666485,0.84808 0,0 -1.149151,0.67848 -1.149151,0.67848 v 0 c -0.199052,-0.29524 -0.406633,-0.58424 -0.617215,-0.8714 -1.017693,-1.37565 -2.052833,-2.73831 -3.047497,-4.13094 -0.874739,-1.25851 -1.791727,-2.50681 -2.396903,-3.9244 -0.255799,-0.58446 -0.514556,-1.16801 -0.787918,-1.74423 0,0 1.20574,-0.65724 1.20574,-0.65724 z"
           id="path913"
           style="opacity:0.853;fill:#933122;fill-opacity:1;stroke:#933122;stroke-width:2;stroke-linecap:square;stroke-linejoin:bevel;stroke-miterlimit:4;stroke-dasharray:none;stroke-opacity:1" />
        <path
           style="opacity:0.853;fill:#933122;fill-opacity:1;stroke:#933122;stroke-width:2;stroke-linecap:square;stroke-linejoin:round;stroke-miterlimit:4;stroke-dasharray:none;stroke-opacity:1"
           id="path915"
           d="m 79.729734,281.89564 c -0.584247,0.2476 -1.163181,0.5088 -1.736479,0.78155 -1.395297,0.63679 -2.643258,1.52658 -3.869618,2.43647 -1.377475,1.02099 -2.663401,2.15418 -3.949412,3.28568 -0.271674,0.23566 -0.543508,0.47082 -0.821468,0.69902 0,0 -0.722738,-1.12184 -0.722738,-1.12184 v 0 c 0.28726,-0.2104 0.567953,-0.42909 0.846691,-0.6507 1.334954,-1.07052 2.656247,-2.15797 4.009066,-3.20613 1.223472,-0.92311 2.435097,-1.88804 3.828031,-2.54798 0.574051,-0.27839 1.147075,-0.55968 1.712207,-0.85529 0,0 0.70372,1.17922 0.70372,1.17922 z"
           inkscape:connector-curvature="0" />
      </g>
    </g>
  </g>
</svg>
