<?xml version="1.0" encoding="UTF-8" standalone="no"?>
<!-- Created with Inkscape (http://www.inkscape.org/) -->

<svg
   xmlns:dc="http://purl.org/dc/elements/1.1/"
   xmlns:cc="http://creativecommons.org/ns#"
   xmlns:rdf="http://www.w3.org/1999/02/22-rdf-syntax-ns#"
   xmlns:svg="http://www.w3.org/2000/svg"
   xmlns="http://www.w3.org/2000/svg"
   xmlns:sodipodi="http://sodipodi.sourceforge.net/DTD/sodipodi-0.dtd"
   xmlns:inkscape="http://www.inkscape.org/namespaces/inkscape"
   width="200"
   height="200"
   viewBox="0 0 52.916665 52.916668"
   version="1.1"
   id="svg8"
   inkscape:version="0.92.5 (2060ec1f9f, 2020-04-08)"
   sodipodi:docname="hiking.svg"
   inkscape:export-filename="/home/chris/trailingblog/trailingblog/static/images/running.png"
   inkscape:export-xdpi="38.400002"
   inkscape:export-ydpi="38.400002">
  <defs
     id="defs2" />
  <sodipodi:namedview
     id="base"
     pagecolor="#ffffff"
     bordercolor="#666666"
     borderopacity="1.0"
     inkscape:pageopacity="0.0"
     inkscape:pageshadow="2"
     inkscape:zoom="4.04"
     inkscape:cx="84.405941"
     inkscape:cy="100"
     inkscape:document-units="mm"
     inkscape:current-layer="layer1"
     showgrid="false"
     units="px"
     inkscape:window-width="1920"
     inkscape:window-height="1015"
     inkscape:window-x="0"
     inkscape:window-y="0"
     inkscape:window-maximized="1" />
  <metadata
     id="metadata5">
    <rdf:RDF>
      <cc:Work
         rdf:about="">
        <dc:format>image/svg+xml</dc:format>
        <dc:type
           rdf:resource="http://purl.org/dc/dcmitype/StillImage" />
        <dc:title></dc:title>
      </cc:Work>
    </rdf:RDF>
  </metadata>
  <g
     inkscape:label="Ebene 1"
     inkscape:groupmode="layer"
     id="layer1"
     transform="translate(0,-244.08332)">
    <path
       style="opacity:0.86400003;fill:none;fill-opacity:1;stroke:#1a7f16;stroke-width:7;stroke-linecap:square;stroke-linejoin:bevel;stroke-miterlimit:4;stroke-dasharray:none;stroke-opacity:1"
       id="path825"
       d="m 31.244505,250.6257 c -0.04104,0.0153 -0.08205,0.0307 -0.123116,0.046 -0.16986,0.0632 -0.170051,0.0589 -0.340471,0.13895 -0.0582,0.0273 -0.228164,0.11844 -0.172726,0.0859 0.852012,-0.50054 0.842389,-0.50011 0.536377,-0.28462 -0.242496,0.19632 -0.292706,0.48415 -0.323964,0.77718 -0.0049,0.23842 -0.0049,0.48064 0.05276,0.71378 0.02991,0.12085 0.07769,0.23648 0.121576,0.3525 0.155487,0.32166 0.375581,0.59111 0.669531,0.79263 0.263609,0.17989 0.564327,0.2487 0.875511,0.28833 0.225668,0.0124 0.455348,0.0435 0.681493,0.0187 0.117197,-0.0129 0.22171,-0.044 0.335433,-0.0732 0.123735,-0.0399 0.199215,-0.06 0.316677,-0.11414 0.04802,-0.0221 0.186098,-0.10044 0.140444,-0.0738 -1.270752,0.74255 -0.685261,0.4025 -0.413518,0.21389 0.153903,-0.11985 0.305308,-0.24351 0.430189,-0.39402 0.08818,-0.10511 0.139282,-0.22478 0.165484,-0.35799 0.02265,-0.12253 0.01847,-0.24189 -0.01294,-0.36183 -0.08313,-0.21781 -0.23658,-0.39718 -0.388014,-0.57046 -0.235064,-0.23025 -0.517938,-0.40626 -0.822738,-0.52737 -0.333238,-0.10444 -0.683681,-0.11511 -1.029827,-0.1237 -0.366877,-0.003 -0.726041,0.0533 -1.07636,0.15917 -0.312036,0.1153 -0.94902,0.45031 0.411909,-0.2673 0.03932,-0.0207 -0.07323,0.0508 -0.106564,0.0802 -0.08905,0.0786 -0.09864,0.10669 -0.165658,0.20577 -0.176559,0.34153 -0.182766,0.7391 -0.187055,1.1154 0.01606,0.38604 0.116425,0.74937 0.327898,1.07457 0.04622,0.0711 0.09977,0.13713 0.149651,0.2057 0.292746,0.36017 0.649266,0.67664 1.050393,0.91282 0.0784,0.0462 0.161251,0.0843 0.241877,0.12649 0.424421,0.18311 0.887931,0.25734 1.348801,0.21317 0.08326,-0.008 0.165267,-0.0259 0.247899,-0.0389 0.146084,-0.0404 0.301442,-0.0772 0.440653,-0.13975 0.06285,-0.0282 0.241146,-0.13347 0.180951,-0.0999 -1.111229,0.61901 -0.730822,0.45907 -0.502349,0.23857 0.04166,-0.0402 0.077,-0.0865 0.115496,-0.12973 0.333235,-0.4442 0.272021,-0.85853 0.193622,-1.37998 -0.176461,-0.87428 -0.590709,-1.67161 -1.057447,-2.42287 -0.202287,-0.31074 -0.423217,-0.61343 -0.679188,-0.88284 -0.210338,-0.22137 -0.450172,-0.40705 -0.693288,-0.58996 -0.288813,-0.21643 -0.608062,-0.37845 -0.958043,-0.46882 -0.21445,-0.0554 -0.331509,-0.0651 -0.551029,-0.0954 -0.334362,-0.052 -0.660431,-0.0135 -0.980225,0.0963 -0.133898,0.046 -0.278329,0.25032 -0.391332,0.16504 -0.107495,-0.0811 0.417195,-0.31182 0.355375,-0.19218 -0.08111,0.15698 -0.281263,0.21394 -0.421894,0.32092 -0.717212,0.62764 -1.300766,1.39901 -1.726176,2.25165 -0.07094,0.14218 -0.130167,0.28991 -0.195252,0.43487 -0.169424,0.50762 -0.43724,1.12924 -0.282723,1.67549 0.02996,0.10589 0.08598,0.20262 0.128971,0.30392 0.0803,0.10314 0.150733,0.21478 0.240903,0.30941 0.483343,0.50726 1.232117,0.86242 1.885423,1.08765 0.188855,0.0651 0.383218,0.11299 0.574824,0.16948 0,0 -0.721572,0.49291 -0.721572,0.49291 v 0 c -0.193374,-0.0585 -0.389581,-0.10834 -0.580118,-0.17549 -0.655801,-0.23115 -1.446321,-0.60688 -1.939406,-1.1082 -0.09752,-0.0992 -0.175046,-0.21617 -0.262567,-0.32426 -0.130064,-0.28924 -0.179798,-0.3259 -0.197207,-0.6406 -0.0259,-0.46823 0.189775,-0.98557 0.339105,-1.41794 0.06721,-0.14836 0.128763,-0.29941 0.20161,-0.44509 0.427993,-0.85586 1.002668,-1.63944 1.710312,-2.28436 0.678286,-0.54252 0.496041,-0.43026 1.601359,-1.01795 0.212272,-0.11286 0.549005,-0.21208 0.789255,-0.24764 0.271597,-0.0402 0.370059,-0.0157 0.632399,0.01 0.221342,0.034 0.346302,0.0463 0.562313,0.10667 0.355981,0.0995 0.680114,0.27315 0.97291,0.49722 0.181949,0.14276 0.292233,0.22352 0.464021,0.38292 0.355867,0.33018 0.645216,0.72245 0.901901,1.13275 0.467374,0.76282 0.884727,1.56913 1.085715,2.44707 0.101423,0.53091 0.188537,0.9639 -0.127852,1.43795 -0.357034,0.45567 -0.571185,0.47908 -1.225515,0.85372 -0.195347,0.11185 -0.416708,0.16358 -0.634532,0.20963 -0.08372,0.01 -0.167053,0.0235 -0.251161,0.0286 -0.472948,0.0287 -0.944782,-0.0557 -1.375431,-0.25337 -0.08189,-0.0448 -0.165873,-0.086 -0.245682,-0.13445 -0.40749,-0.24729 -0.768664,-0.5722 -1.071329,-0.93881 -0.152099,-0.20742 -0.298286,-0.41561 -0.388239,-0.65949 -0.07885,-0.21378 -0.09967,-0.44571 -0.122764,-0.67018 -0.0026,-0.38648 -1.96e-4,-0.79347 0.150564,-1.15524 0.05039,-0.0921 0.07918,-0.15916 0.151788,-0.23617 0.03145,-0.0334 0.06565,-0.0652 0.104733,-0.0891 0.418423,-0.25638 0.77788,-0.52302 1.233228,-0.66091 0.357402,-0.0935 0.721805,-0.14304 1.092174,-0.1348 0.355187,0.0127 0.714115,0.0289 1.052171,0.15041 0.313018,0.13638 0.6038,0.32061 0.845611,0.56388 0.162835,0.18232 0.329388,0.37029 0.42436,0.59858 0.0412,0.13164 0.05367,0.26251 0.03309,0.3998 -0.0191,0.14491 -0.0556,0.28389 -0.147804,0.40122 -0.115427,0.17015 -0.27491,0.29546 -0.431215,0.42665 -0.515416,0.3761 -1.068755,0.73261 -1.688055,0.90121 -0.147381,0.0316 -0.19681,0.0479 -0.347152,0.058 -0.230714,0.0155 -0.463267,-0.0108 -0.692716,-0.0304 -0.321818,-0.0495 -0.632164,-0.1338 -0.901004,-0.32635 -0.299564,-0.2223 -0.530768,-0.50587 -0.693312,-0.84324 -0.04716,-0.12223 -0.09632,-0.2395 -0.129749,-0.36658 -0.06308,-0.23983 -0.0671,-0.48922 -0.06875,-0.73552 0.02111,-0.3081 0.06211,-0.62048 0.289719,-0.85053 0.527868,-0.40501 1.128017,-0.70799 1.751777,-0.93233 0,0 -0.765196,0.59448 -0.765196,0.59448 z"
       inkscape:connector-curvature="0" />
    <path
       style="opacity:0.86400003;fill:none;fill-opacity:1;stroke:#1a7f16;stroke-width:7;stroke-linecap:square;stroke-linejoin:bevel;stroke-miterlimit:4;stroke-dasharray:none;stroke-opacity:1"
       id="path827"
       d="m 33.960042,262.08087 c -0.233775,0.33764 -0.50339,0.64935 -0.74671,0.98089 -0.584208,0.85526 -1.139291,1.73089 -1.687091,2.60988 -0.684824,1.08274 -1.206558,2.25348 -1.728817,3.41967 -0.311609,0.73812 -0.631878,1.47399 -0.895581,2.23103 -0.07093,0.21063 -0.162064,0.41432 -0.20453,0.63324 -0.05572,0.22005 -0.134711,0.43413 -0.208574,0.64876 -0.05287,0.17167 -0.156068,0.31967 -0.233754,0.4794 -9.95e-4,0.007 -0.009,0.018 -0.0026,0.0212 0.01996,0.01 0.04391,0.008 0.06611,0.0106 0.06607,0.007 0.132402,0.0108 0.198596,0.0163 0.114074,0.009 0.227957,0.0219 0.342227,0.0286 0.370867,0.0217 0.745595,0.0256 1.116609,0.0335 1.174185,0.0505 2.349411,0.0803 3.521713,0.16692 0.830103,0.0614 1.037024,0.0873 1.856515,0.16915 1.453151,0.17347 2.882343,0.50112 4.293162,0.88353 0.513418,0.14696 1.020243,0.31343 1.522198,0.49512 0,0 -0.599471,0.73583 -0.599471,0.73583 v 0 c -0.482676,-0.20411 -0.9746,-0.38342 -1.475049,-0.53968 -1.387081,-0.41741 -2.80154,-0.74693 -4.240467,-0.92644 -0.789165,-0.0836 -1.048189,-0.11756 -1.847884,-0.17503 -1.182575,-0.085 -2.368717,-0.10092 -3.553798,-0.11689 -0.343535,0.003 -0.799036,0.009 -1.151137,0.005 -0.136577,-0.002 -0.585131,0.0176 -0.719378,-0.081 -0.02407,-0.0177 -0.0318,-0.0506 -0.04767,-0.0759 0.04037,-0.17512 0.187159,-0.31228 0.240414,-0.48643 0.07524,-0.20972 0.143117,-0.42192 0.21427,-0.63304 0.0095,-0.0573 0.01403,-0.11573 0.02835,-0.17207 0.04305,-0.16938 0.132074,-0.32464 0.184979,-0.49051 0.281999,-0.77454 0.625307,-1.5251 0.94469,-2.28452 0.523486,-1.16534 1.038824,-2.33909 1.717492,-3.42525 0.536062,-0.86821 1.083861,-1.72995 1.645142,-2.58202 0.22732,-0.32243 0.468893,-0.63288 0.720191,-0.93696 0,0 0.729903,-0.64248 0.729903,-0.64248 z"
       inkscape:connector-curvature="0" />
    <path
       style="opacity:0.86400003;fill:none;fill-opacity:1;stroke:#1a7f16;stroke-width:5.344841;stroke-linecap:square;stroke-linejoin:bevel;stroke-miterlimit:4;stroke-dasharray:none;stroke-opacity:1"
       id="path829"
       d="m 35.132194,282.31067 c 0.487693,0.68036 1.060009,1.30975 1.617331,1.9442 0.772579,0.85155 1.566603,1.68873 2.408576,2.48537 0.726942,0.68781 1.136818,1.03619 1.901266,1.70961 1.620999,1.41377 3.312615,2.75925 5.053071,4.05153 0.448967,0.33202 0.905443,0.65561 1.361092,0.98003 0,0 -0.706212,0.27839 -0.706212,0.27839 v 0 c -0.417015,-0.34327 -0.842953,-0.6776 -1.260939,-1.01994 -1.664668,-1.34838 -3.322322,-2.70431 -4.939478,-4.09921 -0.552115,-0.4729 -1.407172,-1.19829 -1.953374,-1.69224 -0.868555,-0.78546 -1.684808,-1.61691 -2.479294,-2.46325 -0.581752,-0.63461 -1.166857,-1.26799 -1.723291,-1.92078 0,0 0.721252,-0.25371 0.721252,-0.25371 z"
       inkscape:connector-curvature="0" />
    <path
       style="opacity:0.86400003;fill:none;fill-opacity:1;stroke:#1a7f16;stroke-width:5.42571688;stroke-linecap:square;stroke-linejoin:bevel;stroke-miterlimit:4;stroke-dasharray:none;stroke-opacity:1"
       id="path831"
       d="m 27.98838,283.2598 c 0.0086,-0.0119 -0.34031,0.18645 -0.25792,0.13484 0.121934,-0.0764 0.230864,-0.19977 0.372447,-0.21742 0.122833,-0.0153 -0.208282,0.13803 -0.310689,0.20972 -0.164918,0.11547 -0.595186,0.43216 -0.75029,0.54581 -0.133181,0.10199 -0.267031,0.20306 -0.399542,0.30598 -0.425139,0.3302 -0.832165,0.67703 -1.216864,1.0571 -0.283151,0.27975 -0.494977,0.51631 -0.764736,0.80895 -0.72941,0.78051 -1.336756,1.66627 -1.935787,2.55358 -0.465391,0.70484 -0.932299,1.40868 -1.395532,2.11504 -0.353302,0.55255 -0.707653,1.10432 -1.063548,1.65514 -0.320737,0.4906 -0.613125,0.99983 -0.905787,1.5085 0,0 -0.651937,0.29789 -0.651937,0.29789 v 0 c 0.30714,-0.50916 0.606784,-1.0233 0.929321,-1.52239 0.184497,-0.28695 0.360221,-0.58016 0.546704,-0.86568 0.171229,-0.26217 0.351167,-0.51843 0.511653,-0.78809 0.474957,-0.71032 0.957411,-1.4153 1.426653,-2.12971 0.600375,-0.89038 1.207351,-1.78055 1.937131,-2.56529 0.229329,-0.24953 0.522294,-0.57361 0.761674,-0.8126 0.192376,-0.19208 0.592747,-0.56286 0.800078,-0.73761 0.132698,-0.11184 0.271129,-0.21624 0.407597,-0.32314 0.131201,-0.10277 0.263599,-0.2039 0.395398,-0.30586 0.688114,-0.50863 1.370939,-1.03385 2.145401,-1.3993 0,0 -0.581425,0.47454 -0.581425,0.47454 z"
       inkscape:connector-curvature="0" />
  </g>
</svg>
