<?xml version="1.0" encoding="UTF-8" standalone="no"?>
<!-- Created with Inkscape (http://www.inkscape.org/) -->

<svg
   xmlns:dc="http://purl.org/dc/elements/1.1/"
   xmlns:cc="http://creativecommons.org/ns#"
   xmlns:rdf="http://www.w3.org/1999/02/22-rdf-syntax-ns#"
   xmlns:svg="http://www.w3.org/2000/svg"
   xmlns="http://www.w3.org/2000/svg"
   xmlns:sodipodi="http://sodipodi.sourceforge.net/DTD/sodipodi-0.dtd"
   xmlns:inkscape="http://www.inkscape.org/namespaces/inkscape"
   width="200"
   height="200"
   viewBox="0 0 52.916665 52.916668"
   version="1.1"
   id="svg8"
   inkscape:version="0.92.5 (2060ec1f9f, 2020-04-08)"
   sodipodi:docname="runner.svg"
   inkscape:export-filename="/home/chris/trailingblog/trailingblog/static/images/running.png"
   inkscape:export-xdpi="38.400002"
   inkscape:export-ydpi="38.400002">
  <defs
     id="defs2" />
  <sodipodi:namedview
     id="base"
     pagecolor="#ffffff"
     bordercolor="#666666"
     borderopacity="1.0"
     inkscape:pageopacity="0.0"
     inkscape:pageshadow="2"
     inkscape:zoom="4.04"
     inkscape:cx="84.405941"
     inkscape:cy="100"
     inkscape:document-units="mm"
     inkscape:current-layer="layer1"
     showgrid="false"
     units="px"
     inkscape:window-width="1920"
     inkscape:window-height="1015"
     inkscape:window-x="0"
     inkscape:window-y="0"
     inkscape:window-maximized="1" />
  <metadata
     id="metadata5">
    <rdf:RDF>
      <cc:Work
         rdf:about="">
        <dc:format>image/svg+xml</dc:format>
        <dc:type
           rdf:resource="http://purl.org/dc/dcmitype/StillImage" />
        <dc:title></dc:title>
      </cc:Work>
    </rdf:RDF>
  </metadata>
  <g
     inkscape:label="Ebene 1"
     inkscape:groupmode="layer"
     id="layer1"
     transform="translate(0,-244.08332)">
    <path
       style="opacity:0.86400003;fill:none;fill-opacity:1;stroke:#258cd5;stroke-width:7;stroke-linecap:square;stroke-linejoin:bevel;stroke-miterlimit:4;stroke-dasharray:none;stroke-opacity:1"
       id="path825"
       d="m 40.282252,250.23275 c -0.04104,0.0153 -0.08205,0.0307 -0.123116,0.046 -0.16986,0.0632 -0.170051,0.0589 -0.340471,0.13895 -0.0582,0.0273 -0.228164,0.11844 -0.172726,0.0859 0.852012,-0.50054 0.842389,-0.50011 0.536377,-0.28462 -0.242496,0.19632 -0.292706,0.48415 -0.323964,0.77718 -0.0049,0.23842 -0.0049,0.48064 0.05276,0.71378 0.02991,0.12085 0.07769,0.23648 0.121576,0.3525 0.155487,0.32166 0.375581,0.59111 0.669531,0.79263 0.263609,0.17989 0.564327,0.2487 0.875511,0.28833 0.225668,0.0124 0.455348,0.0435 0.681493,0.0187 0.117197,-0.0129 0.22171,-0.044 0.335433,-0.0732 0.123735,-0.0399 0.199215,-0.06 0.316677,-0.11414 0.04802,-0.0221 0.186098,-0.10044 0.140444,-0.0738 -1.270752,0.74255 -0.685261,0.4025 -0.413518,0.21389 0.153903,-0.11985 0.305308,-0.24351 0.430189,-0.39402 0.08818,-0.10511 0.139282,-0.22478 0.165484,-0.35799 0.02265,-0.12253 0.01847,-0.24189 -0.01294,-0.36183 -0.08313,-0.21781 -0.23658,-0.39718 -0.388014,-0.57046 -0.235064,-0.23025 -0.517938,-0.40626 -0.822738,-0.52737 -0.333238,-0.10444 -0.683681,-0.11511 -1.029827,-0.1237 -0.366877,-0.003 -0.726041,0.0533 -1.07636,0.15917 -0.312036,0.1153 -0.94902,0.45031 0.411909,-0.2673 0.03932,-0.0207 -0.07323,0.0508 -0.106564,0.0802 -0.08905,0.0786 -0.09864,0.10669 -0.165658,0.20577 -0.176559,0.34153 -0.182766,0.7391 -0.187055,1.1154 0.01606,0.38604 0.116425,0.74937 0.327898,1.07457 0.04622,0.0711 0.09977,0.13713 0.149651,0.2057 0.292746,0.36017 0.649266,0.67664 1.050393,0.91282 0.0784,0.0462 0.161251,0.0843 0.241877,0.12649 0.424421,0.18311 0.887931,0.25734 1.348801,0.21317 0.08326,-0.008 0.165267,-0.0259 0.247899,-0.0389 0.146084,-0.0404 0.301442,-0.0772 0.440653,-0.13975 0.06285,-0.0282 0.241146,-0.13347 0.180951,-0.0999 -1.111229,0.61901 -0.730822,0.45907 -0.502349,0.23857 0.04166,-0.0402 0.077,-0.0865 0.115496,-0.12973 0.333235,-0.4442 0.272021,-0.85853 0.193622,-1.37998 -0.176461,-0.87428 -0.590709,-1.67161 -1.057447,-2.42287 -0.202287,-0.31074 -0.423217,-0.61343 -0.679188,-0.88284 -0.210338,-0.22137 -0.450172,-0.40705 -0.693288,-0.58996 -0.288813,-0.21643 -0.608062,-0.37845 -0.958043,-0.46882 -0.21445,-0.0554 -0.331509,-0.0651 -0.551029,-0.0954 -0.334362,-0.052 -0.660431,-0.0135 -0.980225,0.0963 -0.133898,0.046 -0.278329,0.25032 -0.391332,0.16504 -0.107495,-0.0811 0.417195,-0.31182 0.355375,-0.19218 -0.08111,0.15698 -0.281263,0.21394 -0.421894,0.32092 -0.717212,0.62764 -1.300766,1.39901 -1.726176,2.25165 -0.07094,0.14218 -0.130167,0.28991 -0.195252,0.43487 -0.169424,0.50762 -0.43724,1.12924 -0.282723,1.67549 0.02996,0.10589 0.08598,0.20262 0.128971,0.30392 0.0803,0.10314 0.150733,0.21478 0.240903,0.30941 0.483343,0.50726 1.232117,0.86242 1.885423,1.08765 0.188855,0.0651 0.383218,0.11299 0.574824,0.16948 0,0 -0.721572,0.49291 -0.721572,0.49291 v 0 c -0.193374,-0.0585 -0.389581,-0.10834 -0.580118,-0.17549 -0.655801,-0.23115 -1.446321,-0.60688 -1.939406,-1.1082 -0.09752,-0.0992 -0.175046,-0.21617 -0.262567,-0.32426 -0.130064,-0.28924 -0.179798,-0.3259 -0.197207,-0.6406 -0.0259,-0.46823 0.189775,-0.98557 0.339105,-1.41794 0.06721,-0.14836 0.128763,-0.29941 0.20161,-0.44509 0.427993,-0.85586 1.002668,-1.63944 1.710312,-2.28436 0.678286,-0.54252 0.496041,-0.43026 1.601359,-1.01795 0.212272,-0.11286 0.549005,-0.21208 0.789255,-0.24764 0.271597,-0.0402 0.370059,-0.0157 0.632399,0.01 0.221342,0.034 0.346302,0.0463 0.562313,0.10667 0.355981,0.0995 0.680114,0.27315 0.97291,0.49722 0.181949,0.14276 0.292233,0.22352 0.464021,0.38292 0.355867,0.33018 0.645216,0.72245 0.901901,1.13275 0.467374,0.76282 0.884727,1.56913 1.085715,2.44707 0.101423,0.53091 0.188537,0.9639 -0.127852,1.43795 -0.357034,0.45567 -0.571185,0.47908 -1.225515,0.85372 -0.195347,0.11185 -0.416708,0.16358 -0.634532,0.20963 -0.08372,0.01 -0.167053,0.0235 -0.251161,0.0286 -0.472948,0.0287 -0.944782,-0.0557 -1.375431,-0.25337 -0.08189,-0.0448 -0.165873,-0.086 -0.245682,-0.13445 -0.40749,-0.24729 -0.768664,-0.5722 -1.071329,-0.93881 -0.152099,-0.20742 -0.298286,-0.41561 -0.388239,-0.65949 -0.07885,-0.21378 -0.09967,-0.44571 -0.122764,-0.67018 -0.0026,-0.38648 -1.96e-4,-0.79347 0.150564,-1.15524 0.05039,-0.0921 0.07918,-0.15916 0.151788,-0.23617 0.03145,-0.0334 0.06565,-0.0652 0.104733,-0.0891 0.418423,-0.25638 0.77788,-0.52302 1.233228,-0.66091 0.357402,-0.0935 0.721805,-0.14304 1.092174,-0.1348 0.355187,0.0127 0.714115,0.0289 1.052171,0.15041 0.313018,0.13638 0.6038,0.32061 0.845611,0.56388 0.162835,0.18232 0.329388,0.37029 0.42436,0.59858 0.0412,0.13164 0.05367,0.26251 0.03309,0.3998 -0.0191,0.14491 -0.0556,0.28389 -0.147804,0.40122 -0.115427,0.17015 -0.27491,0.29546 -0.431215,0.42665 -0.515416,0.3761 -1.068755,0.73261 -1.688055,0.90121 -0.147381,0.0316 -0.19681,0.0479 -0.347152,0.058 -0.230714,0.0155 -0.463267,-0.0108 -0.692716,-0.0304 -0.321818,-0.0495 -0.632164,-0.1338 -0.901004,-0.32635 -0.299564,-0.2223 -0.530768,-0.50587 -0.693312,-0.84324 -0.04716,-0.12223 -0.09632,-0.2395 -0.129749,-0.36658 -0.06308,-0.23983 -0.0671,-0.48922 -0.06875,-0.73552 0.02111,-0.3081 0.06211,-0.62048 0.289719,-0.85053 0.527868,-0.40501 1.128017,-0.70799 1.751777,-0.93233 0,0 -0.765196,0.59448 -0.765196,0.59448 z"
       inkscape:connector-curvature="0" />
    <path
       style="opacity:0.86400003;fill:none;fill-opacity:1;stroke:#258cd5;stroke-width:7;stroke-linecap:square;stroke-linejoin:bevel;stroke-miterlimit:4;stroke-dasharray:none;stroke-opacity:1"
       id="path827"
       d="m 29.226023,260.11269 c -0.33035,0.24397 -0.686237,0.45182 -1.023647,0.68693 -0.829264,0.62056 -1.637546,1.2698 -2.440023,1.92458 -0.998,0.80332 -1.870097,1.74261 -2.741225,2.67744 -0.533434,0.5978 -1.074338,1.19068 -1.568553,1.82187 -0.135199,0.1764 -0.287268,0.33971 -0.398204,0.53315 -0.123845,0.19024 -0.267786,0.3673 -0.40705,0.54654 -0.105516,0.14537 -0.251006,0.25208 -0.376145,0.37813 -0.0031,0.006 -0.01431,0.0141 -0.0093,0.0192 0.01566,0.0159 0.03885,0.0221 0.05913,0.0314 0.06036,0.0277 0.12181,0.053 0.182674,0.0796 0.104902,0.0458 0.208645,0.0944 0.314625,0.13765 0.343942,0.14042 0.697313,0.26518 1.045854,0.39259 1.09487,0.42722 2.197389,0.83526 3.27878,1.29612 0.765731,0.32633 0.953175,0.41772 1.702224,0.76006 1.319106,0.6338 2.56571,1.40576 3.777232,2.2236 0.438372,0.305 0.8642,0.62633 1.280496,0.9605 0,0 -0.805107,0.5026 -0.805107,0.5026 v 0 c -0.390809,-0.34915 -0.798385,-0.67782 -1.221478,-0.98743 -1.177745,-0.84329 -2.409803,-1.61226 -3.713499,-2.24717 -0.71981,-0.33412 -0.953945,-0.45001 -1.692154,-0.76284 -1.091645,-0.46262 -2.208985,-0.86104 -3.325309,-1.25915 -0.326068,-0.10819 -0.75913,-0.24953 -1.090886,-0.36757 -0.128681,-0.0458 -0.559415,-0.17246 -0.654583,-0.30918 -0.01707,-0.0245 -0.01373,-0.0582 -0.02059,-0.0872 0.0948,-0.15268 0.278041,-0.23504 0.384719,-0.38263 0.13898,-0.17415 0.271796,-0.35303 0.40736,-0.52982 0.02753,-0.0512 0.05068,-0.10499 0.08244,-0.15368 0.09548,-0.14637 0.229903,-0.26453 0.333575,-0.4044 0.517185,-0.64184 1.084638,-1.24117 1.632315,-1.85662 0.872011,-0.93362 1.739029,-1.87783 2.732307,-2.68637 0.787888,-0.64838 1.584788,-1.28683 2.391324,-1.91178 0.319324,-0.23166 0.648267,-0.44738 0.984354,-0.65393 0,0 0.898372,-0.37211 0.898372,-0.37211 z"
       inkscape:connector-curvature="0" />
    <path
       style="opacity:0.86400003;fill:none;fill-opacity:1;stroke:#258cd5;stroke-width:7;stroke-linecap:square;stroke-linejoin:bevel;stroke-miterlimit:4;stroke-dasharray:none;stroke-opacity:1"
       id="path829"
       d="m 26.935517,280.73022 c 0.750568,0.82736 1.593674,1.56834 2.419497,2.31922 1.138551,1.00287 2.30023,1.98189 3.511747,2.89612 1.045996,0.78932 1.626971,1.18072 2.715813,1.94292 2.305701,1.59691 4.682879,3.08669 7.108164,4.49428 0.625329,0.36129 1.257996,0.70959 1.889834,1.0592 0,0 -0.805061,0.52086 -0.805061,0.52086 v 0 c -0.5886,-0.38301 -1.186167,-0.75208 -1.775756,-1.13364 -2.344735,-1.49915 -4.682546,-3.01 -6.97932,-4.58201 -0.783399,-0.53216 -1.995088,-1.34682 -2.775923,-1.90881 -1.241658,-0.89365 -2.429356,-1.8604 -3.593646,-2.85179 -0.855856,-0.74618 -1.715554,-1.49001 -2.544375,-2.26601 0,0 0.829026,-0.49034 0.829026,-0.49034 z"
       inkscape:connector-curvature="0" />
    <path
       style="opacity:0.86400003;fill:none;fill-opacity:1;stroke:#258cd5;stroke-width:7;stroke-linecap:square;stroke-linejoin:bevel;stroke-miterlimit:4;stroke-dasharray:none;stroke-opacity:1"
       id="path831"
       d="m 17.966964,277.74293 c 0.01129,-0.0151 -0.446175,0.2367 -0.338154,0.17118 0.159865,-0.097 0.302682,-0.25362 0.488308,-0.27602 0.161045,-0.0194 -0.273075,0.17523 -0.407339,0.26625 -0.216221,0.14659 -0.780338,0.54865 -0.983693,0.69293 -0.174611,0.12949 -0.350099,0.2578 -0.523832,0.38846 -0.557393,0.41921 -1.091038,0.85953 -1.59541,1.34205 -0.371235,0.35515 -0.648957,0.65548 -1.002633,1.027 -0.956318,0.9909 -1.752599,2.11542 -2.537979,3.24191 -0.610166,0.89484 -1.2223214,1.7884 -1.8296579,2.68516 -0.4632087,0.7015 -0.9277927,1.402 -1.3944016,2.1013 -0.420512,0.62284 -0.8038575,1.26933 -1.1875619,1.91512 0,0 -0.8547437,0.37818 -0.8547437,0.37818 v 0 c 0.4026859,-0.6464 0.7955446,-1.29913 1.2184172,-1.93275 0.2418919,-0.3643 0.4722802,-0.73655 0.7167751,-1.09903 0.2244954,-0.33284 0.4604088,-0.65817 0.6708195,-1.00053 0.6227078,-0.90178 1.2552458,-1.7968 1.8704613,-2.70378 0.787142,-1.13039 1.582938,-2.2605 2.53974,-3.25678 0.30067,-0.31678 0.684772,-0.72822 0.998619,-1.03164 0.252221,-0.24385 0.77714,-0.71457 1.048969,-0.93643 0.173978,-0.14199 0.355472,-0.27453 0.534393,-0.41024 0.172016,-0.13048 0.3456,-0.25887 0.5184,-0.38831 0.902175,-0.64573 1.797415,-1.31253 2.8128,-1.77649 0,0 -0.762297,0.60246 -0.762297,0.60246 z"
       inkscape:connector-curvature="0" />
  </g>
</svg>
